<?xml version="1.0" standalone="no"?><svg xmlns="http://www.w3.org/2000/svg" viewBox="0 0 1440 280"><path fill="#7D8EFF" fill-opacity="1" d="M0,192L34.3,208C68.6,224,137,256,206,261.3C274.3,267,343,245,411,250.7C480,256,549,288,617,266.7C685.7,245,754,171,823,128C891.4,85,960,75,1029,80C1097.1,85,1166,107,1234,117.3C1302.9,128,1371,128,1406,128L1440,128L1440,0L1405.7,0C1371.4,0,1303,0,1234,0C1165.7,0,1097,0,1029,0C960,0,891,0,823,0C754.3,0,686,0,617,0C548.6,0,480,0,411,0C342.9,0,274,0,206,0C137.1,0,69,0,34,0L0,0Z"></path></svg>